HIERARCHY
ROOT Hips
{
	OFFSET 0.000000 0.000000 0.000000 
	CHANNELS 6 Xposition Yposition Zposition Zrotation Yrotation Xrotation
	JOINT LeftUpLeg
	{
		OFFSET 1.363060 -1.794630 0.839290 
		CHANNELS 3 Zrotation Yrotation Xrotation
		JOINT LeftLeg
		{
			OFFSET 2.448110 -6.726130 0.000000 
			CHANNELS 3 Zrotation Yrotation Xrotation
			JOINT LeftFoot
			{
				OFFSET 2.562200 -7.039590 0.000000 
				CHANNELS 3 Zrotation Yrotation Xrotation
				JOINT LeftToeBase
				{
					OFFSET 0.157640 -0.433110 2.322550 
					CHANNELS 3 Zrotation Yrotation Xrotation
					End Site
					{
						OFFSET 0.000000 0.000000 0.000000 
					}
				}
			}
		}
	}
	JOINT RightUpLeg
	{
		OFFSET -1.305520 -1.794630 0.839290 
		CHANNELS 3 Zrotation Yrotation Xrotation
		JOINT RightLeg
		{
			OFFSET -2.542530 -6.985550 0.000000 
			CHANNELS 3 Zrotation Yrotation Xrotation
			JOINT RightFoot
			{
				OFFSET -2.568260 -7.056230 0.000000 
				CHANNELS 3 Zrotation Yrotation Xrotation
				JOINT RightToeBase
				{
					OFFSET -0.164730 -0.452590 2.363150 
					CHANNELS 3 Zrotation Yrotation Xrotation
					End Site
					{
						OFFSET 0.000000 0.000000 0.000000 
					}
				}
			}
		}
	}
	JOINT Spine
	{
		OFFSET 0.028270 2.035590 -0.193380 
		CHANNELS 3 Zrotation Yrotation Xrotation
		JOINT Spine1
		{
			OFFSET 0.056720 2.048850 -0.042750 
			CHANNELS 3 Zrotation Yrotation Xrotation
			JOINT Neck1
			{
				OFFSET -0.054170 1.746240 0.172020 
				CHANNELS 3 Zrotation Yrotation Xrotation
				JOINT Head
				{
					OFFSET 0.104070 1.761360 -0.123970 
					CHANNELS 3 Zrotation Yrotation Xrotation
					End Site
					{
						OFFSET 0.000000 0.000000 0.000000 
					}
				}
			}
			JOINT LeftArm
			{
				OFFSET 3.362410 1.200890 -0.311210 
				CHANNELS 3 Zrotation Yrotation Xrotation
				JOINT LeftForeArm
				{
					OFFSET 4.983000 -0.000000 -0.000000 
					CHANNELS 3 Zrotation Yrotation Xrotation
					JOINT LeftHand
					{
						OFFSET 3.483560 -0.000000 -0.000000 
						CHANNELS 3 Zrotation Yrotation Xrotation
						JOINT LeftHandIndex1
						{
							OFFSET 0.715260 -0.000000 -0.000000 
							CHANNELS 3 Zrotation Yrotation Xrotation
							End Site
							{
								OFFSET 0.000000 0.000000 0.000000 
							}
						}
					}
				}
			}
			JOINT RightArm
			{
				OFFSET -3.136600 1.374050 -0.404650 
				CHANNELS 3 Zrotation Yrotation Xrotation
				JOINT RightForeArm
				{
					OFFSET -5.241900 -0.000000 -0.000000 
					CHANNELS 3 Zrotation Yrotation Xrotation
					JOINT RightHand
					{
						OFFSET -3.444170 -0.000000 -0.000000 
						CHANNELS 3 Zrotation Yrotation Xrotation
						JOINT RightHandIndex1
						{
							OFFSET -0.622530 -0.000000 -0.000000 
							CHANNELS 3 Zrotation Yrotation Xrotation
							End Site
							{
								OFFSET 0.000000 0.000000 0.000000 
							}
						}
					}
				}
			}
		}
	}
}
MOTION
Frames: 9
Frame Time: 0.041667
11.263841 18.314013 -45.491977 -6.348031 0.160303 4.070798 -10.306474 -30.204733 -4.806820 -1.544622 9.519736 26.487108 -5.465586 15.608008 -4.094034 3.673000 -11.712100 -34.720900 29.227378 12.021905 -4.763170 2.126689 -7.802641 24.046206 1.915447 -7.981117 -1.192552 -0.382600 3.972500 -10.999200 -5.130823 1.065822 5.967386 -2.548397 0.448665 -9.684284 7.498009 -3.110855 46.310626 2.158100 0.208700 19.509200 -81.291631 2.775399 14.054507 23.729785 -24.074286 -6.246052 1.445303 1.275722 11.801348 -7.125000 0.000000 0.000000 86.128733 -6.650737 43.501070 -25.511457 29.373394 -8.247749 1.129552 0.823170 11.482085 7.125000 0.000000 0.000000 
11.274884 18.315319 -45.489483 -6.419229 0.104988 4.066452 -10.311656 -30.319656 -4.704463 -1.547211 9.511516 26.455366 -5.623325 15.941911 -4.130811 3.779000 -11.860400 -35.240000 29.263343 12.107839 -4.752854 2.111838 -7.831063 24.120546 1.897101 -7.924202 -1.099100 -0.357200 3.839500 -10.625600 -5.089960 1.037037 5.829551 -2.585438 0.434846 -9.873112 7.466904 -3.090415 46.349856 2.149000 0.209500 19.506900 -81.515205 3.341190 14.024788 23.735704 -24.086955 -6.252888 1.465727 1.259343 11.931092 -7.125000 0.000000 0.000000 86.122029 -6.778480 43.397200 -25.344624 29.198551 -8.159583 1.130545 0.824699 11.852071 7.125000 0.000000 0.000000 
11.286046 18.316506 -45.487702 -6.464052 0.065937 4.084043 -10.316258 -30.369519 -4.650236 -1.550512 9.505405 26.446725 -5.632482 15.960395 -4.184427 3.747200 -11.816200 -35.084900 29.237322 12.089691 -4.805630 2.100270 -7.849576 24.172220 1.835070 -7.738751 -0.971502 -0.314700 3.606400 -9.971900 -5.042282 1.000920 5.806321 -2.594217 0.417308 -9.920177 7.500762 -3.044156 46.325454 2.179700 0.219700 19.475200 -81.690767 3.790345 14.042923 23.760020 -24.094450 -6.240076 1.478566 1.227324 12.041079 -7.125000 0.000000 0.000000 86.050474 -6.790964 43.284322 -25.246469 29.092666 -8.106162 1.127699 0.827565 12.320168 7.125000 0.000000 0.000000 
11.297089 18.317456 -45.489009 -6.550324 0.097088 4.103825 -10.256654 -30.451836 -4.642241 -1.550735 9.496572 26.426378 -5.615782 15.920018 -4.163721 3.697300 -11.746300 -34.840200 29.267998 12.001680 -4.898016 2.086559 -7.875334 24.237163 1.798092 -7.628663 -0.867314 -0.314100 3.603000 -9.962500 -5.026944 0.953977 5.820850 -2.656861 0.387703 -9.921004 7.654458 -3.052970 46.199735 2.256100 0.215400 19.345100 -81.782426 4.148198 14.187846 23.755777 -24.072303 -6.223940 1.475700 1.216425 12.096450 -7.125000 0.000000 0.000000 86.044401 -6.777177 43.177263 -25.181873 29.014588 -8.057483 1.130758 0.821151 12.576362 7.125000 0.000000 0.000000 
11.307300 18.319712 -45.491265 -6.617930 0.085509 4.128277 -10.228736 -30.551464 -4.621617 -1.554181 9.487626 26.385578 -5.747788 16.198919 -4.188074 3.774100 -11.853600 -35.215900 29.287213 12.016890 -4.971347 2.071814 -7.907439 24.313865 1.773547 -7.555618 -0.787304 -0.320300 3.637800 -10.059700 -5.040166 0.935207 5.758553 -2.720496 0.373354 -10.013997 7.686626 -3.031114 46.158699 2.259200 0.236500 19.289200 -81.890244 4.484626 14.404335 23.723536 -24.028502 -6.213165 1.457048 1.232724 12.203127 -7.125000 0.000000 0.000000 86.084162 -6.809019 43.131362 -25.095558 28.916826 -8.001124 1.136944 0.813945 12.604368 7.125000 0.000000 0.000000 
11.315969 18.319594 -45.490433 -6.596129 0.049143 4.145028 -10.289537 -30.586152 -4.579338 -1.564410 9.481383 26.364616 -5.802345 16.318948 -4.304043 3.783300 -11.866300 -35.260800 29.214387 12.009480 -5.029683 2.055875 -7.935219 24.387991 1.755939 -7.501885 -0.713728 -0.329900 3.691300 -10.209800 -5.031307 0.927785 5.619692 -2.691229 0.377881 -10.215339 7.633210 -2.968792 46.304070 2.242000 0.271600 19.397900 -82.109618 4.852374 14.686298 23.703032 -23.975363 -6.187498 1.415508 1.247665 12.407749 -7.125000 0.000000 0.000000 86.078555 -6.959856 43.115793 -25.072151 28.895303 -7.994702 1.138987 0.812509 12.580827 7.125000 0.000000 0.000000 
11.326418 18.318169 -45.486515 -6.580124 0.000776 4.152247 -10.342106 -30.651798 -4.515294 -1.576701 9.468119 26.345364 -5.710566 16.124785 -4.394018 3.624800 -11.643600 -34.482700 29.156488 11.946298 -5.079682 2.036945 -7.963625 24.466710 1.767012 -7.529150 -0.594785 -0.369800 3.905900 -10.812100 -5.019702 0.895603 5.569238 -2.690171 0.363758 -10.285313 7.600313 -2.861453 46.441663 2.251800 0.316000 19.514300 -82.343319 5.288718 15.144622 23.634773 -23.795862 -6.059947 1.339877 1.223309 13.379889 -7.125000 0.000000 0.000000 86.049705 -7.089101 43.108653 -25.098006 28.919266 -8.009894 1.142495 0.806062 12.625179 7.125000 0.000000 0.000000 
11.338411 18.318881 -45.482359 -6.633491 -0.078496 4.178329 -10.333173 -30.794578 -4.447621 -1.586900 9.445364 26.296168 -5.719993 16.139898 -4.463789 3.482100 -11.437400 -33.769500 29.148380 11.980857 -5.132110 2.022594 -7.993715 24.540740 1.745819 -7.465240 -0.532571 -0.377700 3.946900 -10.927200 -4.887866 0.987995 5.808031 -2.622808 0.408689 -10.009134 7.509967 -2.855633 46.374524 2.191400 0.318900 19.491400 -82.468295 5.314058 14.696037 23.575563 -23.834595 -6.153243 1.437154 1.260390 12.664052 -7.125000 0.000000 0.000000 85.981782 -7.011344 42.819108 -25.113866 28.931320 -8.017213 1.147157 0.799006 12.784076 7.125000 0.000000 0.000000 
11.350166 18.323037 -45.480815 -6.678590 -0.124915 4.226982 -10.324609 -30.946028 -4.398669 -1.598391 9.422292 26.228368 -5.836938 16.385031 -4.541779 3.479300 -11.433300 -33.755500 29.120726 11.981924 -5.256203 2.007159 -8.031649 24.624829 1.719779 -7.389733 -0.470842 -0.386300 3.991400 -11.052500 -4.801804 1.054626 5.970246 -2.596647 0.439069 -9.812725 7.478916 -2.868816 46.300297 2.160600 0.316400 19.450200 -82.567894 5.513107 15.037159 23.550583 -23.764560 -6.103300 1.456534 1.214579 12.830936 -7.125000 0.000000 0.000000 85.960774 -6.872767 42.549746 -25.050831 28.862021 -7.986849 1.150816 0.797682 13.010532 7.125000 0.000000 0.000000 
